# 3D model created by Pretzel's Mesh Generator
# 8 vertex positions
v  -1.0 -1.0 -1.0
v  -1.0 -1.0 1.0
v  1.0 -1.0 -1.0
v  1.0 -1.0 1.0
v  -1.0 1.0 -1.0
v  -1.0 1.0 1.0
v  1.0 1.0 -1.0
v  1.0 1.0 1.0

# 12 UV coordinates
vt 0.0 0.0 0
vt 0.0 1.0 0
vt 1.0 0.0 0
vt 1.0 1.0 0
vt 0.0 0.0 0
vt 0.0 1.0 0
vt 1.0 0.0 0
vt 1.0 1.0 0
vt 0.0 0.0 0
vt 0.0 1.0 0
vt 1.0 0.0 0
vt 1.0 1.0 0

# 6 vertex normals
vn 0.0 0.0 -1.0
vn -1.0 0.0 0.0
vn 1.0 0.0 0.0
vn 0.0 0.0 1.0
vn 0.0 1.0 0.0
vn 0.0 -1.0 0.0

# 12 triangles
f  1/12/6 3/10/6 2/11/6
f  2/11/6 3/10/6 4/9/6
f  4/1/4 8/2/4 2/3/4
f  2/3/4 8/2/4 6/4/4
f  6/6/2 5/8/2 2/5/2
f  2/5/2 5/8/2 1/7/2
f  1/1/1 7/4/1 3/3/1
f  3/5/3 7/6/3 4/7/3
f  4/7/3 7/6/3 8/8/3
f  8/12/5 7/11/5 6/10/5
f  6/10/5 7/11/5 5/9/5
f  5/2/1 7/4/1 1/1/1
